<?xml version="1.0" encoding="UTF-8"?>
<svg width="45px" height="45px" viewBox="0 0 45 45" version="1.1" xmlns="http://www.w3.org/2000/svg" xmlns:xlink="http://www.w3.org/1999/xlink">
    <title>ico-thumbs-up</title>
    <defs>
        <rect id="path-1" x="0" y="0" width="45" height="45"></rect>
        <rect id="path-3" x="0" y="0" width="45" height="45"></rect>
        <rect id="path-5" x="0" y="0" width="45" height="45"></rect>
    </defs>
    <g id="Page-1" stroke="none" stroke-width="1" fill="none" fill-rule="evenodd">
        <g id="Wordpress-Desktop" transform="translate(-1428.000000, -1933.000000)">
            <g id="ico-thumbs-up" transform="translate(1428.000000, 1933.000000)">
                <g transform="translate(22.500000, 22.500000) rotate(180.000000) translate(-22.500000, -22.500000) ">
                    <g id="Path-Clipped">
                        <mask id="mask-2" fill="white">
                            <use xlink:href="#path-1"></use>
                        </mask>
                        <g id="path-1"></g>
                        <path d="M10.4361723,1.31966839 L21.5381198,1.01536764 C25.7580922,0.899683059 34.2571366,1.38505532 37.5277409,4.26962521 C41.7804067,8.02811666 47.5608634,22.1504377 34.258394,27.2556485 C29.6486149,29.0248682 24.4088579,31.3586788 20.5221074,36.8360923 L18.1631479,43.1911996 C17.5042488,44.9641916 14.0135923,43.5206492 13.3358315,41.7539444 C12.6580708,39.9872397 12.6291496,36.1331827 13.5521114,34.4670732 L17.0892932,28.089332" id="Path" stroke="#03243B" stroke-width="2" stroke-linecap="round" stroke-linejoin="round" mask="url(#mask-2)"></path>
                    </g>
                    <g id="Shape-Clipped">
                        <mask id="mask-4" fill="white">
                            <use xlink:href="#path-3"></use>
                        </mask>
                        <g id="path-1"></g>
                        <path d="M3.74407081,25.184643 L3.74407081,24.6816666 C3.75577724,22.9929834 5.12477204,21.6284753 6.81348453,21.6223124 L15.4898281,21.6223124 C17.181668,21.6291981 18.5516629,22.9986318 18.5592419,24.6904687 L18.5592419,25.1934451 C18.5530354,26.8860581 17.1824411,28.2566524 15.4898281,28.2628589 L6.81348453,28.2628589 C5.1203008,28.2580241 3.74890554,26.8866289 3.74407081,25.1934451 L3.74407081,25.184643 Z M2,18.2724893 L2,17.7695129 C2.01032819,16.0796407 3.37952394,14.7132495 5.06941373,14.7063863 L15.3628266,14.7063863 C17.0543013,14.7153234 18.4233032,16.0843254 18.4322403,17.7758001 L18.4322403,18.2787765 C18.425345,19.9708984 17.0549511,21.3407308 15.3628266,21.3469328 L5.06941373,21.3469328 C3.37398479,21.3427762 2.00138063,19.9679228 2,18.2724893 Z M4.70601325,11.3565633 L4.70601325,10.8535868 C4.71566014,9.16342968 6.08525362,7.7966416 7.77542698,7.79046029 L14.8321864,7.79046029 C16.5247178,7.79803928 17.8947144,9.16859715 17.9016002,10.8611315 L17.9016002,11.3641079 C17.8953937,13.0567208 16.5247994,14.4273152 14.8321864,14.4335216 L7.77542698,14.4335216 C6.08028499,14.4286757 4.70808371,13.0542258 4.70601325,11.3590781 L4.70601325,11.3565633 Z M7.30137168,4.77888885 L7.30137168,4.27591241 C7.31032605,2.58505781 8.67992107,1.21714603 10.3707854,1.21027101 L15.8104756,1.21027101 C17.5017434,1.21921411 18.8703818,2.58841344 18.8786319,4.27968474 L18.8786319,4.78266118 C18.8717462,6.47450103 17.5023125,7.84449594 15.8104756,7.8520749 L10.3707854,7.8520749 C8.67641973,7.84654351 7.30482197,6.47326005 7.30137168,4.77888885 Z" id="Shape" stroke="#03243B" stroke-width="2" stroke-linecap="round" stroke-linejoin="round" mask="url(#mask-4)"></path>
                    </g>
                    <g id="Path-Clipped">
                        <mask id="mask-6" fill="white">
                            <use xlink:href="#path-5"></use>
                        </mask>
                        <g id="path-1"></g>
                        <path d="M43.4739614,15.1901018 C43.8604826,20.9019842 41.1371586,25.5516213 34.9695009,28.0501296 L33.6278523,28.5765624 C27.9849085,30.8344059 24.5055336,33.0987454 21.5865128,37.0701672 L21.412,37.31 L19.1005112,43.539553 C18.5811685,44.9370209 17.1475486,45.2744536 15.6137809,44.8050738 L15.4293002,44.7448917 C14.0753772,44.275982 12.8435652,43.2626768 12.402178,42.1121218 C11.6113856,40.0507798 11.6451826,36.1532427 12.5631951,34.2061114 L12.6776046,33.9820599 L16.2147864,27.6043187 L16.6414145,27.0455833 C16.9085693,26.7282104 17.4587714,25.9484819 17.4827271,25.8401489 C18.7838906,19.955983 21.4659967,16.6205813 25.9754589,15.7236717 C26.5171334,15.6159353 27.043585,15.9677117 27.1513214,16.5093863 C27.2590577,17.0510608 26.9072814,17.5775124 26.3656068,17.6852488 C22.7254027,18.4092673 20.5184076,21.2431706 19.3743896,26.416687 C19.3413604,26.5660528 19.2703817,26.7382417 19.1824341,26.8515625 C19.0316162,27.4194946 18.6720581,27.729187 18.0144793,28.4690963 L17.9638,28.5743453 L14.4268597,34.9516508 C13.7057636,36.2533569 13.6465888,39.7720763 14.2694851,41.395767 C14.4752053,41.9320137 15.2434332,42.5639684 16.0838255,42.8550249 C16.7368141,43.0811771 17.0991553,43.0359403 17.2046168,42.8834663 L17.22565,42.8432087 L19.5846095,36.4881014 C19.6150105,36.4062003 19.6560127,36.328636 19.7065689,36.2573895 C23.1207242,31.445982 27.1641854,28.9072639 33.9000951,26.3220416 C39.4757858,24.1822076 41.8145143,20.2902723 41.4785249,15.3251324 C41.4865723,13.6970215 43.3925781,13.932373 43.4739614,15.1901018 Z" id="Path" fill="#66A8F7" fill-rule="nonzero" mask="url(#mask-6)"></path>
                    </g>
                </g>
            </g>
        </g>
    </g>
</svg>