<?xml version="1.0" encoding="UTF-8"?>
<svg width="60px" height="60px" viewBox="0 0 60 60" version="1.1" xmlns="http://www.w3.org/2000/svg" xmlns:xlink="http://www.w3.org/1999/xlink">
    <!-- Generator: Sketch 63.1 (92452) - https://sketch.com -->
    <title>WordPress</title>
    <desc>Created with Sketch.</desc>
    <g id="Interim" stroke="none" stroke-width="1" fill="none" fill-rule="evenodd">
        <g id="BH-Homepage_Interim_1440" transform="translate(-206.000000, -978.000000)" fill="#202D3F">
            <g id="Powering" transform="translate(0.000000, 866.000000)">
                <g id="Icon-Set" transform="translate(119.000000, 111.000000)">
                    <g id="WP" transform="translate(0.000000, 1.000000)">
                        <path d="M117,0 C122.403226,0 127.403226,1.35080707 132,4.05241935 C136.596774,6.75403164 140.245968,10.4032258 142.947581,15 C145.649193,19.5967742 147,24.5967736 147,30 C147,35.4032264 145.649193,40.4032258 142.947581,45 C140.245968,49.5967742 136.596774,53.2459684 132,55.9475806 C127.403226,58.6491929 122.403226,60 117,60 C111.596774,60 106.596774,58.6491929 102,55.9475806 C97.4032258,53.2459684 93.7540316,49.5967742 91.0524194,45 C88.3508071,40.4032258 87,35.4032264 87,30 C87,24.5967736 88.3508071,19.5967742 91.0524194,15 C93.7540316,10.4032258 97.4032258,6.75403164 102,4.05241935 C106.596774,1.35080707 111.596774,0 117,0 Z M90.2,29.769863 C90.2,34.9936067 91.6238095,39.7753425 94.4714286,44.1150685 C97.3190476,48.4547945 101.095238,51.7497711 105.8,54 L92.552381,18.8 C90.9841264,22.2557084 90.2,25.9123288 90.2,29.769863 Z M117.309489,57.2 C120.490024,57.2 123.586861,56.6732032 126.6,55.6196078 L126.348905,55.254902 L117.811679,32.4 L109.4,56.1058824 C111.994648,56.8352941 114.631144,57.2 117.309489,57.2 Z M120.729377,17.36 L130.509792,46.16 L133.443917,36.68 C134.095944,34.52 134.544214,32.9999994 134.788724,32.12 C135.196241,30.7600006 135.4,29.6 135.4,28.64 C135.4,27.1199994 135.15549,25.6799994 134.666469,24.32 C134.340454,23.4400006 133.810682,22.4 133.077151,21.2 L132.710386,20.72 C131.976855,19.4399994 131.447083,18.4799994 131.121068,17.84 C130.632047,16.7999994 130.387537,15.8399994 130.387537,14.96 C130.387537,13.6799994 130.835807,12.56 131.732344,11.6 C132.628882,10.64 133.729178,10.16 135.033234,10.16 L135.4,10.28 C132.873392,8.03999939 130.041148,6.29999939 126.903264,5.06 C123.76538,3.82000061 120.444115,3.2 116.939466,3.2 C112.293769,3.2 107.953709,4.28 103.919288,6.44 C99.8848665,8.6 96.6451039,11.5199994 94.2,15.2 L95.9115727,15.32 C97.1341246,15.32 98.7234421,15.2399994 100.679525,15.08 L103.124629,14.96 C103.61365,14.96 103.960039,15.1199994 104.163798,15.44 C104.367557,15.7600006 104.408309,16.1200006 104.286053,16.52 C104.163798,16.9199994 103.85816,17.12 103.369139,17.12 L100.190504,17.36 L110.21543,46.4 L116.08368,28.88 L111.927003,17.48 L108.992878,17.12 C108.585362,17.12 108.300098,16.94 108.137092,16.58 C107.974086,16.22 107.99446,15.86 108.19822,15.5 C108.401979,15.14 108.748368,14.96 109.237389,14.96 L111.804748,15.08 C113.760831,15.2399994 115.309397,15.32 116.450445,15.32 C117.591493,15.32 119.140059,15.2399994 121.096142,15.08 L123.663501,14.96 C124.071018,14.96 124.397033,15.1199994 124.641543,15.44 C124.886053,15.7600006 124.926805,16.1200006 124.763798,16.52 C124.600792,16.9199994 124.274777,17.12 123.785757,17.12 C122.726211,17.2 121.707418,17.2799994 120.729377,17.36 Z M130.2,53.6 C134.243243,51.1733333 137.454054,47.8973333 139.832432,43.772 C142.210811,39.6466667 143.4,35.1168895 143.4,30.1826667 C143.4,25.572 142.32973,21.2444438 140.189189,17.2 C140.268469,18.0897772 140.308108,19.02 140.308108,19.9906667 C140.308108,22.9835562 139.634234,26.2191105 138.286486,29.6973333 L130.2,53.6 Z" id="WordPress"></path>
                    </g>
                </g>
            </g>
        </g>
    </g>
</svg>