<?xml version="1.0" encoding="UTF-8"?>
<svg width="61px" height="59px" viewBox="0 0 61 59" version="1.1" xmlns="http://www.w3.org/2000/svg" xmlns:xlink="http://www.w3.org/1999/xlink">
    <!-- Generator: Sketch 63.1 (92452) - https://sketch.com -->
    <title>ico-money-back</title>
    <desc>Created with Sketch.</desc>
    <defs>
        <rect id="path-1" x="0" y="0" width="60" height="60"></rect>
        <rect id="path-3" x="0" y="0" width="60" height="60"></rect>
        <rect id="path-5" x="0" y="0" width="60" height="60"></rect>
    </defs>
    <g id="Interim" stroke="none" stroke-width="1" fill="none" fill-rule="evenodd">
        <g id="BH-Homepage_Interim_1440" transform="translate(-890.000000, -978.000000)">
            <g id="Powering" transform="translate(0.000000, 866.000000)">
                <g id="Icon-Set" transform="translate(119.000000, 111.000000)">
                    <g id="Money_Back" transform="translate(692.666667, 0.000000)">
                        <g id="ico-money-back" transform="translate(79.000000, 0.000000)">
                            <g id="Shape-Clipped">
                                <mask id="mask-2" fill="white">
                                    <use xlink:href="#path-1"></use>
                                </mask>
                                <g id="path-1"></g>
                                <path d="M41.3650353,25.2346461 C45.0931365,28.2900681 47.3867292,32.512548 47.3867292,37.1775372 C47.3867292,42.3644605 44.5355423,47.0116197 40.0488536,50.1091855 L41.4898457,57.3206299 C41.6178979,57.9689953 41.1218984,58.4957923 40.4054545,58.4909959 L34.0838917,58.4568903 C33.3685757,58.4474851 32.7464448,57.9643408 32.5602329,57.2736235 L31.7724689,53.5633523 C28.1660933,54.2225296 24.4700963,54.2225296 20.8637208,53.5633523 L20.0791985,57.2671397 C19.9430419,57.9155052 19.2687419,58.4471648 18.5571608,58.4504067 L12.2355979,58.4844459 C11.520775,58.4844459 11.0134291,57.9592699 11.1528276,57.3141463 L12.5921989,50.6116687 C9.73777011,49.7266499 7.54629499,47.5740767 6.32898891,44.6142885 L3.24925316,44.6142885 C2.36909709,44.6142885 1.33333333,44.6142885 1.33333333,43.3321459 L1.33333333,36.1693289 C1.33333333,34.9001536 2.05301895,34.1221151 3.19738392,34.1221151 L5.59147324,34.1221151 C6.17484739,31.5915901 7.38872539,29.2497033 9.12020205,27.3142781 C8.85437223,23.9298107 7.25453055,22.3542827 5.74870185,19.4917493 C11.071782,18.8676976 14.7123539,20.0266508 16.9800119,21.9231197 C18.4998135,21.3476636 20.0750868,20.9310309 21.6806612,20.6798789 M58.6666667,32.9323645 C54.722984,34.5840755 49.4144921,29.96123 50.5896544,26.7518212 C51.5913791,24.01734 54.2577817,24.67381 55.2351927,26.3271419 C56.6064856,28.6466691 55.5301989,31.0277911 54.2188799,33.3602857 C53.6385928,34.3895659 51.3255492,37.3752887 47.4402193,34.5241016 M12.6067871,32.5384825 C12.0990629,33.0380797 11.6627042,33.6053461 11.3100563,34.2242327" id="Shape" stroke="#03243B" stroke-width="2.5" stroke-linecap="round" stroke-linejoin="round" mask="url(#mask-2)"></path>
                            </g>
                            <g id="Path-Clipped">
                                <mask id="mask-4" fill="white">
                                    <use xlink:href="#path-3"></use>
                                </mask>
                                <g id="path-1"></g>
                                <path d="M34.5860828,3 C39.8803301,3 44.1721656,7.29183544 44.1721656,12.5860828 C44.1721656,17.8803301 39.8803301,22.1721655 34.5860828,22.1721655 C29.2918355,22.1721655 25,17.8803301 25,12.5860828 C25,7.29183544 29.2918355,3 34.5860828,3 L34.5860828,3 Z" id="Path" stroke="#66A8F7" stroke-width="2.5" stroke-linecap="round" stroke-linejoin="round" mask="url(#mask-4)"></path>
                                <path d="M35.2282,18.65544 L35.2282,17.34324 C37.4881,17.18286 38.31916,15.82692 38.31916,14.51472 C38.31916,12.60474 36.72994,12.0507 35.2282,11.62788 L35.2282,8.46402 C36.04468,8.58066 36.80284,8.93058 37.37146,9.5721 L38.10046,8.68272 C37.40062,7.93914 36.43834,7.458 35.2282,7.35594 L35.2282,6 L34.33882,6 L34.33882,7.32678 C32.58922,7.44342 31.30618,8.50776 31.30618,10.02408 C31.30618,11.81742 32.85166,12.32772 34.33882,12.72138 L34.33882,16.26432 C33.187,16.14768 32.29762,15.5499 31.729,14.90838 L31,15.82692 C31.729,16.65798 32.85166,17.27034 34.33882,17.35782 L34.33882,18.65544 L35.2282,18.65544 Z M34.33882,11.3946 C33.36196,11.11758 32.56006,10.78224 32.56006,9.95118 C32.56006,9.09096 33.28906,8.4786 34.33882,8.42028 L34.33882,11.3946 Z M35.2282,16.24974 L35.2282,12.95466 C36.23422,13.26084 37.07986,13.62534 37.07986,14.61678 C37.07986,15.28746 36.62788,16.1331 35.2282,16.24974 Z" id="$" stroke="#66A8F7" stroke-width="0.5" fill="#66A8F7" fill-rule="nonzero" mask="url(#mask-4)"></path>
                            </g>
                            <g id="Path-Clipped">
                                <mask id="mask-6" fill="white">
                                    <use xlink:href="#path-5"></use>
                                </mask>
                                <g id="path-1"></g>
                            </g>
                        </g>
                    </g>
                </g>
            </g>
        </g>
    </g>
</svg>