<?xml version="1.0" standalone="no"?>
<!DOCTYPE svg PUBLIC "-//W3C//DTD SVG 20010904//EN"
 "http://www.w3.org/TR/2001/REC-SVG-20010904/DTD/svg10.dtd">
<svg version="1.0" xmlns="http://www.w3.org/2000/svg"
 width="900.000000pt" height="500.000000pt" viewBox="0 0 900.000000 500.000000"
 preserveAspectRatio="xMidYMid meet">

<g transform="translate(0.000000,500.000000) scale(0.100000,-0.100000)"
fill="currentColor" stroke="none">
<path d="M1534 3481 c-22 -10 -82 -59 -132 -109 l-91 -90 -53 28 c-71 37 -142
52 -251 53 -113 0 -195 -20 -307 -75 -116 -56 -221 -160 -274 -270 -30 -63
-42 -78 -65 -83 -37 -8 -54 -28 -78 -94 -16 -43 -27 -57 -54 -70 -27 -13 -35
-23 -37 -49 -3 -26 3 -39 28 -62 l31 -29 -16 -53 c-34 -116 -39 -292 -11 -411
59 -253 246 -478 481 -582 123 -55 199 -70 350 -69 122 1 151 4 228 27 163 50
289 128 398 245 283 306 293 765 23 1097 -48 58 -157 150 -212 179 -40 21 -72
51 -72 69 0 18 155 139 200 156 54 21 110 79 110 114 0 46 -17 65 -72 82 -65
19 -74 19 -124 -4z m136 -34 c58 -28 22 -85 -85 -139 -33 -17 -88 -51 -123
-75 -35 -25 -64 -43 -65 -41 -1 2 -15 17 -31 35 l-28 31 88 93 c49 50 103 98
119 105 32 15 82 11 125 -9z m-557 -127 c104 -21 211 -100 251 -185 25 -51 29
-142 9 -208 -43 -150 -152 -261 -322 -332 -143 -60 -193 -70 -346 -70 -136 0
-142 1 -200 30 -105 53 -130 142 -91 325 24 114 68 194 150 275 150 148 345
207 549 165z m-740 -462 c-3 -18 -7 -40 -8 -48 -2 -8 -4 -50 -4 -94 l-1 -79
-43 5 c-48 6 -97 41 -97 70 0 11 13 23 33 31 27 12 38 27 61 81 20 46 34 66
46 66 15 0 17 -6 13 -32z m1125 -4 c18 -7 40 -27 50 -46 9 -18 36 -51 59 -75
42 -41 42 -42 29 -75 -8 -18 -20 -34 -28 -37 -7 -2 -19 -8 -26 -14 -19 -15
-105 -17 -114 -3 -4 6 -8 25 -8 42 0 59 -19 91 -61 108 l-39 16 15 30 c8 16
20 41 25 55 11 28 28 27 98 -1z m-1049 -325 c1 -10 -68 -69 -79 -69 -14 0 -12
19 6 73 l16 47 28 -23 c16 -12 29 -25 29 -28z m174 -55 c52 -7 65 -20 88 -86
11 -33 10 -41 -16 -92 -28 -55 -28 -57 -12 -91 26 -56 11 -81 -54 -88 -48 -6
-56 -4 -79 18 -14 14 -31 25 -38 25 -19 0 -43 45 -36 66 4 10 25 45 46 76 21
31 38 64 38 72 0 9 -9 39 -19 67 l-20 51 27 -6 c15 -3 49 -9 75 -12z m1243
-181 c-12 -138 -54 -266 -121 -367 -36 -55 -136 -158 -195 -201 l-35 -26 -3
40 c-2 31 7 57 42 126 26 47 46 92 46 100 0 8 -12 39 -27 70 l-27 55 31 32 31
31 -30 54 c-39 70 -29 87 46 78 46 -6 60 -2 146 38 52 25 97 46 99 46 2 1 1
-34 -3 -76z m-763 -242 c37 -16 55 -34 97 -96 l52 -76 39 6 c30 5 46 2 73 -15
30 -18 36 -29 46 -78 7 -31 15 -74 20 -95 l8 -39 -51 -23 c-171 -75 -409 -82
-601 -19 l-50 17 35 31 c19 17 56 49 83 72 l48 41 -21 76 c-11 42 -18 82 -15
89 4 7 38 42 76 76 76 70 75 70 161 33z"/>
<path d="M1571 3406 c-9 -10 -8 -15 1 -18 19 -7 38 2 38 18 0 18 -24 18 -39 0z"/>
<path d="M877 3300 c-54 -10 -62 -14 -52 -29 10 -17 94 -13 126 6 54 32 29 40
-74 23z m48 -20 c-3 -5 -20 -10 -36 -10 -18 0 -28 4 -24 10 3 6 20 10 36 10
18 0 28 -4 24 -10z"/>
<path d="M990 3275 l-23 -24 37 -45 c57 -71 61 -73 123 -80 32 -4 66 -9 76
-12 13 -4 17 1 17 24 0 24 -13 42 -62 87 -90 82 -128 93 -168 50z m119 -51
c17 -14 31 -33 31 -41 0 -23 -59 -9 -89 21 -46 46 6 64 58 20z"/>
<path d="M1140 3276 c0 -2 25 -22 55 -45 35 -26 64 -41 78 -39 17 2 9 11 -44
46 -57 37 -89 51 -89 38z"/>
<path d="M725 3240 c-27 -16 -56 -34 -63 -40 -19 -17 -9 -35 19 -32 62 8 75
13 103 41 25 25 27 32 16 45 -15 20 -14 20 -75 -14z m20 -37 c-21 -15 -45 -17
-45 -5 0 12 43 31 54 24 5 -3 1 -11 -9 -19z"/>
<path d="M843 3229 c-10 -4 -29 -19 -43 -33 l-24 -27 29 -55 c17 -30 35 -59
40 -64 6 -4 35 -10 66 -13 53 -5 57 -4 82 28 15 19 27 39 27 46 0 11 -75 107
-95 121 -12 9 -56 7 -82 -3z m105 -81 c5 -24 -27 -49 -56 -46 -17 2 -32 14
-42 31 -14 27 -14 29 9 48 23 19 24 19 55 1 17 -10 32 -25 34 -34z"/>
<path d="M584 3138 c-16 -18 -38 -43 -48 -55 -19 -23 -19 -23 7 -23 20 0 35
11 57 42 49 67 37 93 -16 36z m3 -33 c-4 -8 -11 -15 -17 -15 -6 0 -6 7 2 20
14 22 24 19 15 -5z"/>
<path d="M1243 3149 c3 -13 9 -40 12 -60 6 -30 14 -40 46 -54 22 -10 42 -15
45 -12 8 8 -14 101 -29 121 -7 9 -27 19 -46 22 -32 7 -34 6 -28 -17z m61 -41
c18 -25 20 -38 7 -38 -15 0 -41 30 -41 46 0 21 17 17 34 -8z"/>
<path d="M664 3130 c-12 -5 -32 -25 -44 -45 -21 -35 -22 -40 -10 -91 17 -70
26 -81 77 -89 40 -6 43 -5 72 35 44 62 45 72 11 139 -26 53 -34 61 -58 60 -15
0 -37 -4 -48 -9z m43 -58 c7 -4 15 -22 19 -39 5 -26 2 -34 -19 -48 -34 -22
-62 -7 -65 34 -2 21 4 34 20 45 26 18 28 19 45 8z"/>
<path d="M1044 3065 l-27 -36 29 -61 c28 -58 60 -85 89 -74 15 5 95 140 95
159 0 24 -22 34 -92 41 l-67 6 -27 -35z m114 -37 c8 -8 6 -18 -9 -40 -25 -34
-42 -36 -59 -3 -11 20 -11 27 0 40 15 18 51 20 68 3z"/>
<path d="M480 2984 c-31 -71 -33 -88 -15 -130 16 -39 52 -84 67 -84 4 0 20 23
34 52 26 51 26 54 14 121 -13 68 -27 87 -65 87 -9 0 -24 -19 -35 -46z m64 -58
c12 -62 -19 -93 -46 -46 -13 23 -14 32 -2 58 16 40 40 34 48 -12z"/>
<path d="M1224 2958 c-16 -29 -30 -56 -32 -60 -5 -10 61 -88 74 -88 11 0 16
10 60 108 l24 52 -33 20 c-48 30 -61 25 -93 -32z m64 -6 c16 -11 -3 -72 -23
-72 -25 0 -36 26 -24 54 13 27 25 32 47 18z"/>
<path d="M810 2947 c-22 -30 -40 -59 -40 -66 0 -20 40 -92 54 -97 12 -5 191
60 209 76 10 8 -33 99 -58 124 -11 11 -34 16 -70 16 -54 0 -55 0 -95 -53z
m126 -33 c19 -29 14 -36 -36 -53 -30 -10 -37 -9 -47 6 -17 23 -16 30 7 53 27
27 56 25 76 -6z"/>
<path d="M612 2853 c-13 -26 -36 -113 -31 -118 12 -11 129 -8 153 4 32 17 32
34 3 86 -21 37 -26 40 -69 43 -37 2 -49 -1 -56 -15z m73 -39 c23 -24 13 -39
-28 -42 -39 -3 -45 5 -27 39 13 23 33 24 55 3z"/>
<path d="M1043 2822 c-54 -23 -83 -42 -83 -52 0 -22 40 -140 48 -140 16 0 212
124 212 134 0 22 -61 96 -78 95 -10 0 -54 -17 -99 -37z m97 -47 c0 -5 -19 -23
-41 -39 -33 -23 -43 -26 -50 -15 -16 26 -9 49 22 68 26 16 35 17 50 8 11 -7
19 -16 19 -22z"/>
<path d="M424 2773 c-6 -51 -4 -63 21 -111 33 -62 44 -58 52 20 5 51 3 60 -26
102 -18 25 -34 46 -36 46 -2 0 -7 -26 -11 -57z m46 -32 c10 -20 4 -51 -10 -51
-10 0 -20 26 -20 51 0 25 16 24 30 0z"/>
<path d="M808 2724 l-66 -26 -12 -70 c-7 -38 -10 -72 -7 -75 3 -3 50 5 104 18
54 13 103 23 108 24 13 1 9 60 -7 110 -16 50 -32 52 -120 19z m65 -64 c6 -24
2 -27 -52 -36 -38 -6 -41 -5 -35 12 12 33 26 44 54 44 19 0 29 -6 33 -20z"/>
<path d="M525 2651 c-4 -28 -4 -55 0 -60 6 -10 43 -22 111 -36 l31 -6 12 62
c7 34 9 65 4 69 -4 4 -40 11 -80 14 l-71 7 -7 -50z m112 -12 c2 -8 -1 -20 -6
-28 -8 -12 -14 -13 -35 -3 -24 10 -35 40 -20 54 10 10 59 -8 61 -23z"/>
<path d="M7775 3046 c-104 -33 -187 -103 -227 -191 -17 -38 -23 -69 -23 -125
0 -65 4 -84 32 -140 18 -36 61 -101 96 -146 l64 -80 -33 -23 c-54 -37 -151
-137 -189 -194 -37 -56 -65 -147 -65 -212 0 -101 67 -231 146 -285 87 -60 130
-74 239 -74 152 -1 240 38 383 169 56 52 65 56 80 43 9 -8 63 -54 120 -101
l103 -87 154 0 c97 0 155 4 155 10 0 6 -12 10 -27 10 -44 1 -135 43 -199 92
-68 53 -228 196 -232 209 -2 4 13 36 33 71 21 34 64 125 97 202 33 77 68 157
79 177 39 78 109 139 159 139 11 0 20 5 20 10 0 6 -68 10 -185 10 -172 0 -229
-9 -152 -24 17 -4 41 -13 52 -22 48 -36 9 -227 -84 -412 -64 -128 -44 -135
-269 92 -109 109 -205 208 -214 221 -18 23 -18 24 60 78 92 65 174 146 209
205 34 58 43 163 19 227 -23 60 -102 130 -169 150 -61 18 -177 19 -232 1z
m155 -67 c42 -21 91 -71 116 -119 13 -25 19 -56 18 -105 0 -91 -35 -158 -118
-227 -100 -84 -102 -85 -132 -57 -39 36 -134 183 -160 247 -46 111 -18 213 71
260 66 34 139 35 205 1z m-34 -810 c76 -83 182 -191 234 -240 l95 -89 -35 -31
c-149 -132 -299 -162 -446 -89 -116 57 -194 175 -194 295 0 89 33 160 111 238
37 37 73 67 81 67 8 0 77 -68 154 -151z"/>
<path d="M2120 3036 c0 -7 20 -21 45 -30 24 -10 56 -32 71 -49 l26 -31 -4
-231 c-4 -252 -10 -279 -63 -290 -14 -3 -36 -7 -50 -10 -14 -3 -25 -12 -25
-20 0 -13 24 -15 151 -15 137 0 150 2 147 17 -2 11 -18 20 -44 26 -77 15 -79
19 -82 276 l-2 226 24 -27 c13 -14 119 -140 236 -278 143 -170 217 -250 228
-248 15 3 18 35 22 316 6 349 2 334 77 348 18 3 33 12 33 20 0 11 -27 14 -140
14 -112 0 -140 -3 -140 -14 0 -8 16 -16 39 -20 21 -3 49 -14 62 -25 24 -19 24
-23 27 -220 2 -111 0 -201 -5 -200 -4 0 -98 108 -208 240 l-199 239 -113 0
c-89 0 -113 -3 -113 -14z"/>
<path d="M3327 3003 c4 -31 -12 -81 -92 -283 -53 -135 -106 -259 -117 -277
-10 -18 -37 -40 -59 -49 -21 -10 -39 -24 -39 -31 0 -10 30 -13 130 -13 102 0
130 3 130 13 0 8 -18 19 -40 26 -62 18 -68 42 -35 140 l27 81 129 0 130 0 19
-45 c10 -24 26 -65 35 -91 14 -43 14 -48 0 -64 -9 -10 -36 -21 -61 -25 -28 -4
-44 -11 -44 -21 0 -12 29 -14 175 -14 148 0 175 2 175 15 0 8 -11 17 -24 21
-14 3 -32 14 -41 24 -9 10 -72 155 -139 322 l-123 303 -70 3 -71 3 5 -38z m88
-203 c26 -63 50 -121 52 -127 4 -10 -20 -13 -101 -13 -65 0 -106 4 -106 10 0
24 93 261 100 253 4 -4 28 -60 55 -123z"/>
<path d="M3870 2966 c0 -57 3 -75 15 -80 16 -6 20 -2 76 66 33 40 77 58 142
58 l37 0 0 -279 c0 -156 -4 -291 -10 -305 -7 -19 -21 -28 -55 -37 -26 -7 -45
-17 -45 -25 0 -11 33 -14 175 -14 145 0 175 2 175 14 0 8 -14 17 -32 21 -70
15 -68 6 -68 333 l0 295 55 -6 c70 -7 114 -32 140 -80 14 -26 27 -37 43 -37
21 0 22 4 22 75 l0 75 -335 0 -335 0 0 -74z"/>
<path d="M4680 3027 c0 -7 19 -17 43 -23 60 -13 66 -36 66 -279 1 -110 6 -217
12 -238 26 -95 123 -149 269 -151 105 -1 167 16 218 60 71 60 76 81 82 329 6
250 10 267 74 279 22 4 36 13 36 21 0 12 -23 15 -130 15 -109 0 -130 -2 -130
-15 0 -9 10 -15 26 -15 38 0 64 -18 80 -55 17 -42 20 -359 3 -420 -38 -135
-246 -182 -356 -81 -35 32 -36 35 -44 132 -12 145 -10 334 4 374 10 30 18 36
55 44 23 6 42 16 42 23 0 10 -38 13 -175 13 -137 0 -175 -3 -175 -13z"/>
<path d="M5650 3026 c0 -8 14 -17 33 -21 68 -15 67 -8 67 -310 0 -302 1 -297
-68 -311 -18 -4 -32 -13 -32 -20 0 -11 33 -14 175 -14 141 0 175 3 175 14 0 7
-18 17 -42 22 -60 13 -69 35 -66 164 l3 105 37 3 c20 2 46 -1 56 -7 10 -5 50
-54 88 -108 38 -53 86 -119 107 -145 l37 -48 95 0 c75 0 95 3 95 14 0 8 -11
17 -25 20 -30 8 -59 39 -169 184 -70 92 -83 114 -68 118 89 28 145 75 163 134
23 76 -13 149 -95 193 -39 21 -55 22 -303 25 -227 3 -263 1 -263 -12z m428
-40 c63 -32 100 -113 82 -175 -20 -72 -71 -101 -187 -109 l-83 -5 0 150 c0 82
3 153 8 157 12 13 147 -1 180 -18z"/>
<path d="M6550 3025 c0 -8 9 -15 20 -15 33 0 77 -27 84 -52 3 -13 6 -133 6
-268 0 -281 -2 -290 -68 -304 -23 -6 -42 -16 -42 -23 0 -11 60 -13 317 -11
l317 3 18 79 c10 44 16 81 14 84 -13 13 -57 -12 -76 -42 -31 -51 -79 -77 -166
-87 -86 -11 -148 1 -164 31 -5 10 -10 75 -10 144 l0 126 81 0 c93 0 115 -9
135 -56 11 -26 20 -34 39 -34 l25 0 0 110 0 110 -25 0 c-18 0 -28 -9 -40 -34
-21 -43 -55 -56 -146 -56 l-69 0 0 140 0 140 88 0 c127 -1 160 -11 209 -64 60
-67 73 -62 73 24 l0 70 -310 0 c-269 0 -310 -2 -310 -15z"/>
<path d="M3267 2016 c-103 -28 -163 -120 -155 -235 11 -152 153 -222 341 -167
51 15 57 19 57 44 0 15 3 37 6 50 5 19 2 22 -20 22 -19 0 -27 -6 -32 -25 -8
-33 -57 -73 -99 -81 -85 -16 -155 65 -155 181 0 131 50 201 138 192 45 -5 96
-42 108 -79 3 -11 15 -18 29 -18 21 0 23 3 18 43 -3 23 -9 46 -13 51 -10 11
-117 36 -150 35 -14 0 -46 -6 -73 -13z"/>
<path d="M3750 2019 c-66 -20 -131 -79 -151 -138 -6 -18 -9 -60 -7 -92 8 -115
93 -188 218 -188 104 -1 179 47 217 136 28 68 10 168 -40 221 -52 56 -161 84
-237 61z m125 -41 c42 -33 65 -92 65 -171 0 -114 -44 -180 -120 -180 -76 0
-129 79 -130 191 0 76 16 119 59 155 40 33 88 35 126 5z"/>
<path d="M6993 2020 c-46 -15 -83 -63 -83 -109 0 -50 28 -80 119 -126 39 -19
80 -44 91 -55 55 -55 -10 -122 -94 -99 -25 7 -39 20 -57 54 -34 64 -59 61 -59
-5 0 -46 3 -52 28 -61 42 -18 165 -23 205 -10 20 7 48 26 63 44 22 26 25 38
21 72 -7 48 -45 86 -140 135 -34 18 -70 40 -79 48 -41 35 -6 92 57 92 32 0 75
-36 88 -72 4 -10 16 -18 27 -18 17 0 20 6 20 41 0 37 -3 41 -37 56 -46 20
-127 26 -170 13z"/>
<path d="M2140 2011 c0 -5 14 -14 30 -20 l30 -10 0 -163 c0 -169 -4 -188 -42
-188 -10 0 -18 -4 -18 -10 0 -6 58 -10 153 -10 143 0 156 2 203 25 158 80 145
312 -22 369 -35 12 -85 16 -191 16 -79 0 -143 -4 -143 -9z m298 -47 c15 -11
35 -36 44 -55 24 -46 24 -152 0 -199 -35 -70 -129 -103 -172 -60 -18 18 -20
33 -20 181 l0 161 60 -4 c39 -3 70 -11 88 -24z"/>
<path d="M2666 2005 c4 -8 14 -15 23 -15 36 0 41 -20 41 -176 0 -162 -6 -184
-51 -184 -10 0 -19 -4 -19 -10 0 -12 366 -14 373 -2 3 4 8 26 12 50 8 52 -10
57 -43 12 -32 -43 -141 -67 -170 -38 -7 7 -12 43 -12 90 l0 78 40 0 c31 0 47
-6 64 -25 37 -40 46 -32 46 40 0 72 -11 82 -45 39 -14 -17 -33 -27 -63 -31
l-42 -6 0 82 0 81 61 0 c54 0 64 -3 91 -30 16 -16 34 -30 39 -30 13 0 22 45
14 69 -6 20 -13 21 -185 21 -155 0 -179 -2 -174 -15z"/>
<path d="M4410 2008 c0 -7 13 -21 29 -30 37 -21 45 -56 39 -185 -4 -94 -5 -96
-37 -125 -31 -28 -39 -30 -93 -26 -96 7 -102 19 -106 189 l-4 140 31 12 c17 6
31 15 31 19 0 4 -47 8 -105 8 -63 0 -105 -4 -105 -10 0 -5 8 -10 19 -10 10 0
23 -6 28 -12 6 -7 13 -75 16 -151 7 -153 16 -181 67 -211 45 -27 160 -28 207
-3 59 31 67 56 73 208 5 142 14 169 51 169 11 0 19 7 19 15 0 12 -16 15 -80
15 -57 0 -80 -4 -80 -12z"/>
<path d="M4600 2005 c0 -8 6 -15 14 -15 27 0 51 -47 111 -219 56 -160 62 -171
84 -169 20 3 30 23 86 176 61 168 84 212 112 212 7 0 13 7 13 15 0 12 -14 15
-70 15 -54 0 -70 -3 -70 -14 0 -8 9 -18 20 -21 13 -4 20 -15 20 -32 0 -26 -66
-220 -80 -236 -9 -11 -93 239 -86 258 3 8 15 15 26 15 11 0 20 7 20 15 0 12
-18 15 -100 15 -82 0 -100 -3 -100 -15z"/>
<path d="M5060 2006 c0 -7 14 -16 30 -19 l30 -6 0 -164 c0 -168 -4 -187 -42
-187 -10 0 -18 -4 -18 -10 0 -6 68 -10 184 -10 l184 0 6 36 c4 19 10 42 13 50
9 25 -24 15 -42 -12 -20 -31 -72 -54 -122 -54 -55 0 -66 11 -71 74 -6 80 2
106 36 106 47 0 73 -12 83 -37 16 -42 34 -21 37 42 4 75 -8 87 -47 47 -19 -22
-38 -32 -58 -32 -48 0 -54 10 -51 86 l3 69 68 0 c63 0 71 -2 91 -27 32 -41 46
-36 46 17 l0 45 -180 0 c-146 0 -180 -3 -180 -14z"/>
<path d="M5520 2011 c0 -5 14 -14 30 -20 l30 -10 0 -163 c0 -169 -4 -188 -42
-188 -10 0 -18 -4 -18 -10 0 -6 42 -10 105 -10 63 0 105 4 105 10 0 6 -8 10
-18 10 -32 0 -42 22 -42 92 0 61 2 68 20 68 13 0 42 -29 87 -90 l68 -90 62 0
c35 0 63 4 63 10 0 6 -6 10 -13 10 -20 0 -147 147 -147 170 0 4 14 13 30 20
96 40 91 162 -8 190 -46 12 -312 13 -312 1z m259 -47 c25 -21 31 -34 31 -64 0
-51 -35 -80 -96 -80 l-44 0 0 85 0 85 39 0 c28 0 49 -8 70 -26z"/>
<path d="M6000 1970 c0 -27 3 -50 7 -50 4 0 21 16 39 35 23 26 40 35 63 35
l31 0 0 -152 c0 -183 -3 -197 -41 -205 -61 -12 -25 -23 76 -23 100 0 134 10
80 24 -33 8 -36 26 -33 201 l3 150 28 3 c22 3 35 -5 61 -32 18 -20 35 -36 39
-36 4 0 7 23 7 50 l0 50 -180 0 -180 0 0 -50z"/>
<path d="M6430 2006 c0 -9 12 -16 28 -18 l27 -3 3 -164 c3 -170 -2 -191 -39
-191 -11 0 -19 -4 -19 -10 0 -6 68 -10 184 -10 l184 0 7 33 c4 17 9 40 11 50
7 24 -23 22 -36 -4 -19 -34 -70 -59 -125 -59 -28 0 -56 5 -63 12 -7 7 -12 42
-12 85 l0 73 50 0 c42 0 52 -4 66 -25 29 -45 44 -32 44 40 0 72 -9 80 -46 40
-18 -20 -33 -25 -69 -25 l-46 0 3 78 3 77 68 0 c63 0 71 -2 91 -27 32 -41 46
-36 46 17 l0 45 -180 0 c-150 0 -180 -2 -180 -14z"/>
</g>
</svg>
